<svg xmlns="http://www.w3.org/2000/svg" version="1.1" xmlns:xlink="http://www.w3.org/1999/xlink" width="200" height="200"><svg xmlns="http://www.w3.org/2000/svg" version="1.1" xmlns:xlink="http://www.w3.org/1999/xlink" viewBox="0 0 200 200"><rect width="200" height="200" fill="url('#gradient')"></rect><defs><linearGradient id="SvgjsLinearGradient1001" gradientTransform="rotate(45 0.5 0.5)"><stop offset="0%" stop-color="#0cd4e8" style="--darkreader-inline-stopcolor: var(--darkreader-background-0cd4e8, #0aaaba);" data-darkreader-inline-stopcolor=""></stop><stop offset="100%" stop-color="#4257e3" style="--darkreader-inline-stopcolor: var(--darkreader-background-4257e3, #17299e);" data-darkreader-inline-stopcolor=""></stop></linearGradient></defs><g><g fill="#ddddd" transform="matrix(2.0137659783677484,0,0,2.0137659783677484,9.584448032630583,111.02400193078445)" stroke="#0e5278" stroke-width="0.2" style="--darkreader-inline-stroke: var(--darkreader-text-0e5278, #7dc7f0);" data-darkreader-inline-stroke=""><path d="M10.11-14.22L12.09-5.30L13.72-14.22L17.12-14.22L14.10 0L10.55 0L8.64-8.11L6.78 0L3.23 0L0.21-14.22L3.61-14.22L5.24-5.30L7.20-14.22L10.11-14.22ZM21.78-10.57L21.78 0L18.48 0L18.48-10.57L21.78-10.57ZM18.28-13.29L18.28-13.29Q18.28-13.99 18.79-14.44Q19.30-14.89 20.11-14.89Q20.92-14.89 21.43-14.44Q21.93-13.99 21.93-13.29Q21.93-12.59 21.43-12.14Q20.92-11.69 20.11-11.69Q19.30-11.69 18.79-12.14Q18.28-12.59 18.28-13.29ZM30.35 0L28.05-3.94L27.12-3.01L27.12 0L23.83 0L23.83-15.01L27.12-15.01L27.12-7.04L27.45-7.48L29.93-10.57L33.88-10.57L30.18-6.22L34.12 0L30.35 0ZM38.21-10.57L38.21 0L34.91 0L34.91-10.57L38.21-10.57ZM34.72-13.29L34.72-13.29Q34.72-13.99 35.22-14.44Q35.73-14.89 36.54-14.89Q37.35-14.89 37.86-14.44Q38.37-13.99 38.37-13.29Q38.37-12.59 37.86-12.14Q37.35-11.69 36.54-11.69Q35.73-11.69 35.22-12.14Q34.72-12.59 34.72-13.29ZM49.42-14.22L51.41-5.30L53.04-14.22L56.44-14.22L53.42 0L49.86 0L47.96-8.11L46.09 0L42.55 0L39.52-14.22L42.93-14.22L44.56-5.30L46.51-14.22L49.42-14.22ZM56.91-4.82L56.90-5.38Q56.90-6.96 57.52-8.20Q58.13-9.43 59.29-10.10Q60.44-10.76 61.99-10.76L61.99-10.76Q64.37-10.76 65.73-9.29Q67.10-7.82 67.10-5.29L67.10-5.29L67.10-5.18Q67.10-2.71 65.73-1.25Q64.36 0.20 62.01 0.20L62.01 0.20Q59.76 0.20 58.39-1.16Q57.02-2.51 56.91-4.82L56.91-4.82ZM60.21-5.77L60.20-5.18Q60.20-3.71 60.65-3.03Q61.11-2.34 62.01-2.34L62.01-2.34Q63.77-2.34 63.81-5.05L63.81-5.05L63.81-5.38Q63.81-8.22 61.99-8.22L61.99-8.22Q60.34-8.22 60.21-5.77L60.21-5.77ZM68.14-4.82L68.13-5.38Q68.13-6.96 68.75-8.20Q69.37-9.43 70.52-10.10Q71.67-10.76 73.22-10.76L73.22-10.76Q75.60-10.76 76.96-9.29Q78.33-7.82 78.33-5.29L78.33-5.29L78.33-5.18Q78.33-2.71 76.96-1.25Q75.59 0.20 73.24 0.20L73.24 0.20Q70.99 0.20 69.62-1.16Q68.25-2.51 68.14-4.82L68.14-4.82ZM71.44-5.77L71.43-5.18Q71.43-3.71 71.88-3.03Q72.34-2.34 73.24-2.34L73.24-2.34Q75-2.34 75.04-5.05L75.04-5.05L75.04-5.38Q75.04-8.22 73.22-8.22L73.22-8.22Q71.57-8.22 71.44-5.77L71.44-5.77ZM89.59-5.36L89.59-5.21Q89.59-2.74 88.48-1.27Q87.37 0.20 85.49 0.20L85.49 0.20Q84.03 0.20 83.10-0.87L83.10-0.87L83.10 4.06L79.80 4.06L79.80-10.57L82.88-10.57L82.98-9.59Q83.93-10.76 85.47-10.76L85.47-10.76Q87.42-10.76 88.51-9.32Q89.59-7.88 89.59-5.36L89.59-5.36ZM86.30-5.06L86.30-5.41Q86.30-8.22 84.66-8.22L84.66-8.22Q83.49-8.22 83.10-7.38L83.10-7.38L83.10-3.22Q83.53-2.34 84.68-2.34L84.68-2.34Q86.25-2.34 86.30-5.06L86.30-5.06Z"></path></g></g></svg><style>@media (prefers-color-scheme: light) { :root { filter: none; } }
@media (prefers-color-scheme: dark) { :root { filter: none; } }
</style></svg>